<?xml version="1.0" encoding="UTF-8"?>
<!-- Do not edit this file with editors other than draw.io -->
<!DOCTYPE svg PUBLIC "-//W3C//DTD SVG 1.1//EN" "http://www.w3.org/Graphics/SVG/1.1/DTD/svg11.dtd">
<svg xmlns="http://www.w3.org/2000/svg" style="background: transparent; background-color: transparent; color-scheme: light dark;" xmlns:xlink="http://www.w3.org/1999/xlink" version="1.1" width="242px" height="81px" viewBox="-0.5 -0.5 242 81" content="&lt;mxfile host=&quot;app.diagrams.net&quot; agent=&quot;Mozilla/5.0 (Windows NT 10.0; Win64; x64) AppleWebKit/537.36 (KHTML, like Gecko) Chrome/132.0.0.0 Safari/537.36 Edg/132.0.0.0&quot; version=&quot;26.0.11&quot;&gt;&#10;  &lt;diagram name=&quot;Page-1&quot; id=&quot;0-_qGT7CfGR4GsY43sdS&quot;&gt;&#10;    &lt;mxGraphModel dx=&quot;1593&quot; dy=&quot;1115&quot; grid=&quot;1&quot; gridSize=&quot;10&quot; guides=&quot;1&quot; tooltips=&quot;1&quot; connect=&quot;1&quot; arrows=&quot;1&quot; fold=&quot;1&quot; page=&quot;1&quot; pageScale=&quot;1&quot; pageWidth=&quot;850&quot; pageHeight=&quot;1100&quot; math=&quot;0&quot; shadow=&quot;0&quot;&gt;&#10;      &lt;root&gt;&#10;        &lt;mxCell id=&quot;0&quot; /&gt;&#10;        &lt;mxCell id=&quot;1&quot; parent=&quot;0&quot; /&gt;&#10;        &lt;mxCell id=&quot;PWz2QFM1jna8mR8T70au-2&quot; value=&quot;&quot; style=&quot;html=1;verticalLabelPosition=bottom;align=center;labelBackgroundColor=#ffffff;verticalAlign=top;strokeWidth=2;strokeColor=#0080F0;shadow=0;dashed=0;shape=mxgraph.ios7.icons.lightbulb;&quot; parent=&quot;1&quot; vertex=&quot;1&quot;&gt;&#10;          &lt;mxGeometry x=&quot;20&quot; y=&quot;26.97&quot; width=&quot;42.8&quot; height=&quot;55.75&quot; as=&quot;geometry&quot; /&gt;&#10;        &lt;/mxCell&gt;&#10;        &lt;mxCell id=&quot;PWz2QFM1jna8mR8T70au-3&quot; value=&quot;&quot; style=&quot;verticalLabelPosition=bottom;verticalAlign=top;html=1;shape=mxgraph.basic.wave2;dy=0.5;&quot; parent=&quot;1&quot; vertex=&quot;1&quot;&gt;&#10;          &lt;mxGeometry x=&quot;90&quot; y=&quot;30&quot; width=&quot;91.42&quot; height=&quot;54.85&quot; as=&quot;geometry&quot; /&gt;&#10;        &lt;/mxCell&gt;&#10;        &lt;mxCell id=&quot;PWz2QFM1jna8mR8T70au-4&quot; value=&quot;&quot; style=&quot;shape=cylinder3;whiteSpace=wrap;html=1;boundedLbl=1;backgroundOutline=1;size=15;&quot; parent=&quot;1&quot; vertex=&quot;1&quot;&gt;&#10;          &lt;mxGeometry x=&quot;200&quot; y=&quot;14.849999999999994&quot; width=&quot;60&quot; height=&quot;80&quot; as=&quot;geometry&quot; /&gt;&#10;        &lt;/mxCell&gt;&#10;      &lt;/root&gt;&#10;    &lt;/mxGraphModel&gt;&#10;  &lt;/diagram&gt;&#10;&lt;/mxfile&gt;&#10;" resource="https://app.diagrams.net/#Hntnu-e2515-soil%2Fmonorepo%2Fcharts%2Fcharts%2FHardware.svg"><defs/><g><g data-cell-id="0"><g data-cell-id="1"><g data-cell-id="PWz2QFM1jna8mR8T70au-2"><g><path d="M 16.76 67.72 L 16.76 59.25 C 16.76 54.81 14.67 50.62 11.13 47.95 C 4.05 43.02 1 34.05 3.58 25.82 C 6.16 17.58 13.78 11.97 22.4 11.97 C 31.01 11.97 38.63 17.58 41.22 25.82 C 43.8 34.05 40.74 43.02 33.67 47.95 C 30.12 50.62 28.03 54.81 28.03 59.25 L 28.03 67.72 Z" fill="#ffffff" stroke="#0080f0" stroke-width="2" stroke-miterlimit="10" pointer-events="all" style="fill: light-dark(#ffffff, var(--ge-dark-color, #121212)); stroke: light-dark(rgb(0, 128, 240), rgb(50, 160, 255));"/><path d="M 22.4 35.53 L 22.4 62.07 M 16.76 62.07 L 28.03 62.07" fill="#ffffff" stroke="#0080f0" stroke-width="2" stroke-miterlimit="10" pointer-events="all" style="fill: light-dark(#ffffff, var(--ge-dark-color, #121212)); stroke: light-dark(rgb(0, 128, 240), rgb(50, 160, 255));"/><ellipse cx="22.4" cy="33.84" rx="1.6905859117840683" ry="1.6941855753646677" fill="none" stroke="#0080f0" stroke-width="2" pointer-events="all" style="stroke: light-dark(rgb(0, 128, 240), rgb(50, 160, 255));"/></g></g><g data-cell-id="PWz2QFM1jna8mR8T70au-3"><g><path d="M 71 28.71 Q 86.24 4.03 101.47 28.71 Q 116.71 53.39 131.95 28.71 Q 147.18 4.03 162.42 28.71 L 162.42 56.14 Q 147.18 31.46 131.95 56.14 Q 116.71 80.82 101.47 56.14 Q 86.24 31.46 71 56.14 Z" fill="#ffffff" stroke="#000000" stroke-miterlimit="10" pointer-events="all" style="fill: light-dark(#ffffff, var(--ge-dark-color, #121212)); stroke: light-dark(rgb(0, 0, 0), rgb(255, 255, 255));"/></g></g><g data-cell-id="PWz2QFM1jna8mR8T70au-4"><g><path d="M 181 14.85 C 181 6.57 194.43 -0.15 211 -0.15 C 218.96 -0.15 226.59 1.43 232.21 4.24 C 237.84 7.06 241 10.87 241 14.85 L 241 64.85 C 241 73.13 227.57 79.85 211 79.85 C 194.43 79.85 181 73.13 181 64.85 Z" fill="#ffffff" stroke="#000000" stroke-miterlimit="10" pointer-events="all" style="fill: light-dark(#ffffff, var(--ge-dark-color, #121212)); stroke: light-dark(rgb(0, 0, 0), rgb(255, 255, 255));"/><path d="M 241 14.85 C 241 23.13 227.57 29.85 211 29.85 C 194.43 29.85 181 23.13 181 14.85" fill="none" stroke="#000000" stroke-miterlimit="10" pointer-events="all" style="stroke: light-dark(rgb(0, 0, 0), rgb(255, 255, 255));"/></g></g></g></g></g></svg>